<?xml version="1.0" encoding="UTF-8"?>
<!DOCTYPE svg PUBLIC "-//W3C//DTD SVG 1.1//EN" "http://www.w3.org/Graphics/SVG/1.1/DTD/svg11.dtd">
<svg xmlns="http://www.w3.org/2000/svg" version="1.1" width="406px" height="210px" style="shape-rendering:geometricPrecision; text-rendering:geometricPrecision; image-rendering:optimizeQuality; fill-rule:evenodd; clip-rule:evenodd" xmlns:xlink="http://www.w3.org/1999/xlink">
<g><path style="opacity:0.901" fill="#fefffe" d="M 42.5,-0.5 C 46.8333,-0.5 51.1667,-0.5 55.5,-0.5C 85.3706,6.56456 99.5373,25.5646 98,56.5C 92.4319,83.0686 76.0986,97.0686 49,98.5C 22.3333,96.9924 5.83329,83.3257 -0.5,57.5C -0.5,52.1667 -0.5,46.8333 -0.5,41.5C 4.58538,18.0818 18.9187,4.08175 42.5,-0.5 Z M 41.5,9.5 C 74.1388,8.97137 89.6388,24.9714 88,57.5C 82.4358,77.1282 69.4358,87.7949 49,89.5C 24.8347,86.6681 11.3347,73.1681 8.5,49C 11.1046,28.5809 22.1046,15.4142 41.5,9.5 Z"/></g>
<g><path style="opacity:0.981" fill="#fefffe" d="M 138.5,-0.5 C 157.5,-0.5 176.5,-0.5 195.5,-0.5C 232.187,69.5425 268.854,139.543 305.5,209.5C 284.5,209.5 263.5,209.5 242.5,209.5C 226.679,179.86 210.846,150.194 195,120.5C 194.5,150.165 194.333,179.831 194.5,209.5C 175.833,209.5 157.167,209.5 138.5,209.5C 138.5,139.5 138.5,69.5 138.5,-0.5 Z"/></g>
<g><path style="opacity:0.976" fill="#fefffe" d="M 294.5,-0.5 C 294.833,-0.5 295.167,-0.5 295.5,-0.5C 331.928,68.6932 368.595,137.693 405.5,206.5C 405.5,207.5 405.5,208.5 405.5,209.5C 383.833,209.5 362.167,209.5 340.5,209.5C 314.763,159.693 288.763,110.026 262.5,60.5C 272.907,40.0187 283.574,19.6854 294.5,-0.5 Z"/></g>
<g><path style="opacity:0.982" fill="#fefffe" d="M 53.5,209.5 C 50.5,209.5 47.5,209.5 44.5,209.5C 20.5121,205.18 5.51212,191.18 -0.5,167.5C -0.5,162.167 -0.5,156.833 -0.5,151.5C 8.87145,119.301 30.2048,106.134 63.5,112C 89.0725,121.628 100.573,140.128 98,167.5C 92.3129,191.358 77.4796,205.358 53.5,209.5 Z"/></g>
</svg>
