<?xml version="1.0" encoding="utf-8"?>
<!-- Generator: Adobe Illustrator 25.0.0, SVG Export Plug-In . SVG Version: 6.00 Build 0)  -->
<svg version="1.1" id="Layer_1" xmlns="http://www.w3.org/2000/svg" xmlns:xlink="http://www.w3.org/1999/xlink" x="0px" y="0px"
	 viewBox="0 0 80 80" style="enable-background:new 0 0 80 80;" xml:space="preserve">
<style type="text/css">
	.st0{fill-rule:evenodd;clip-rule:evenodd;fill:#DC2626;}
</style>
<path class="st0" d="M28.9,31.4c-4.8,0-8.6,3.9-8.6,8.6c0,4.8,3.9,8.6,8.6,8.6h8.6v-8.4c0-0.1,0-0.1,0-0.2c0-0.1,0-0.1,0-0.2v-8.4
	H28.9z M37.5,26.4h-8.6c-4.8,0-8.6-3.9-8.6-8.6c0-4.8,3.9-8.6,8.6-8.6h8.6V26.4z M42.5,9.2v17.2l8.6,0c4.8,0,8.6-3.9,8.6-8.6
	s-3.9-8.6-8.6-8.6H42.5z M51.1,31.4c-4.7,0-8.5,3.8-8.6,8.5v0.3c0.1,4.7,3.9,8.5,8.6,8.5c4.8,0,8.6-3.9,8.6-8.6
	C59.7,35.2,55.9,31.4,51.1,31.4z M28.9,53.6c-4.8,0-8.6,3.9-8.6,8.6s3.9,8.6,8.6,8.6c4.8,0,8.6-3.9,8.6-8.6l0-8.6H28.9z"/>
</svg>
