<?xml version="1.0" encoding="utf-8"?>
<!-- Generator: Adobe Illustrator 25.0.0, SVG Export Plug-In . SVG Version: 6.00 Build 0)  -->
<svg version="1.1" id="Layer_1" xmlns="http://www.w3.org/2000/svg" xmlns:xlink="http://www.w3.org/1999/xlink" x="0px" y="0px"
	 viewBox="0 0 80 80" style="enable-background:new 0 0 80 80;" xml:space="preserve">
<style type="text/css">
	.st0{fill:#DC2626;}
	.st1{fill-rule:evenodd;clip-rule:evenodd;fill:#DC2626;}
</style>
<path class="st0" d="M33.3,56.7H30v-25l17.4,26.1c1.6,2.3,4.4,3.5,7.2,2.8l0.8-0.2c0.7-0.2,1.3-0.9,1.3-1.6V23.3c0,0,3.3,0,3.3-3.3
	H50c-3.3,0-3.3,3.3-3.3,3.3H50v20L33.8,20.7C33.5,20.3,33,20,32.5,20h-9.1C20,20,20,23.3,20,23.3h3.3v33.3c0,0-3.3,0-3.3,3.3h10
	C33.3,60,33.3,56.7,33.3,56.7z"/>
<path class="st1" d="M3.3,13.3c0-5.5,4.5-10,10-10h53.3c5.5,0,10,4.5,10,10v53.3c0,5.5-4.5,10-10,10H13.3c-5.5,0-10-4.5-10-10V13.3z
	 M13.3,10h53.3c1.8,0,3.3,1.5,3.3,3.3v53.3c0,1.8-1.5,3.3-3.3,3.3H13.3c-1.8,0-3.3-1.5-3.3-3.3V13.3C10,11.5,11.5,10,13.3,10z"/>
</svg>
