<?xml version="1.0" encoding="utf-8"?>
<!-- Generator: Adobe Illustrator 25.0.0, SVG Export Plug-In . SVG Version: 6.00 Build 0)  -->
<svg version="1.1" id="Layer_1" xmlns="http://www.w3.org/2000/svg" xmlns:xlink="http://www.w3.org/1999/xlink" x="0px" y="0px"
	 viewBox="0 0 81 81" style="enable-background:new 0 0 81 81;" xml:space="preserve">
<style type="text/css">
	.st0{fill:#DC2626;}
	.st1{fill:#E02F2F;}
</style>
<path class="st0" d="M73,13.1l-14.4-7c-0.8-0.4-1.7-0.5-2.6-0.4c-0.9,0.2-1.7,0.6-2.4,1.2L6.5,50c-0.6,0.5-0.9,1.2-1,2
	c0,0.8,0.2,1.5,0.8,2.1c0.1,0.1,0.1,0.1,0.2,0.2l3.9,3.5c0.5,0.5,1.2,0.7,1.8,0.8c0.7,0,1.3-0.2,1.9-0.6l56.8-43.1
	c0.4-0.3,0.9-0.5,1.5-0.6s1.1,0,1.6,0.3c0.5,0.2,0.9,0.6,1.2,1.1c0.3,0.5,0.4,1,0.4,1.5V17c0-0.8-0.2-1.6-0.7-2.3S73.8,13.4,73,13.1
	z"/>
<path class="st0" d="M73,67.9l-14.4,6.9c-0.8,0.4-1.7,0.5-2.6,0.4c-0.9-0.2-1.7-0.6-2.4-1.2L6.5,31c-0.6-0.5-0.9-1.2-1-2
	c0-0.8,0.2-1.5,0.8-2.1c0.1-0.1,0.1-0.1,0.2-0.2l3.9-3.5c0.5-0.5,1.2-0.7,1.8-0.8c0.7,0,1.4,0.2,1.9,0.6l56.8,43.1
	c0.4,0.3,0.9,0.5,1.5,0.6c0.5,0.1,1.1,0,1.6-0.3c0.5-0.2,0.9-0.6,1.2-1.1c0.3-0.5,0.4-1,0.4-1.5V64c0,0.8-0.2,1.6-0.7,2.3
	S73.8,67.6,73,67.9z"/>
<path class="st1" d="M58.6,74.9c-0.8,0.4-1.7,0.5-2.6,0.4c-0.9-0.2-1.7-0.6-2.4-1.2c0.4,0.4,0.8,0.6,1.3,0.7s1,0,1.5-0.1
	c0.5-0.2,0.9-0.5,1.1-0.9c0.3-0.4,0.4-0.9,0.4-1.4V8.8c0-0.5-0.1-1-0.4-1.4c-0.3-0.4-0.7-0.7-1.1-0.9c-0.5-0.2-1-0.2-1.5-0.1
	s-1,0.3-1.3,0.7C54.2,6.5,55.1,6,56,5.9c0.9-0.2,1.8,0,2.6,0.4L73,13.1c0.7,0.4,1.4,0.9,1.8,1.6c0.4,0.7,0.7,1.5,0.7,2.3v47
	c0,0.8-0.2,1.6-0.7,2.3c-0.4,0.7-1.1,1.3-1.8,1.6L58.6,74.9z"/>
</svg>
