<?xml version="1.0" encoding="utf-8"?>
<!-- Generator: Adobe Illustrator 25.0.0, SVG Export Plug-In . SVG Version: 6.00 Build 0)  -->
<svg version="1.1" id="Layer_1" xmlns="http://www.w3.org/2000/svg" xmlns:xlink="http://www.w3.org/1999/xlink" x="0px" y="0px"
	 viewBox="0 0 80 80" style="enable-background:new 0 0 80 80;" xml:space="preserve">
<style type="text/css">
	.st0{clip-path:url(#SVGID_2_);}
	.st1{fill-rule:evenodd;clip-rule:evenodd;fill:#DC2626;}
</style>
<g>
	<defs>
		<rect id="SVGID_1_" y="0" width="80" height="80"/>
	</defs>
	<clipPath id="SVGID_2_">
		<use xlink:href="#SVGID_1_"  style="overflow:visible;"/>
	</clipPath>
	<g class="st0">
		<path class="st1" d="M75.1,20.8c0.2,1.3,0.3,2.6,0.3,4.1c0,7-0.7,7.4-15.3,49.7C72,67.6,80,54.8,80,40C80,33,78.2,26.5,75.1,20.8z
			 M40.7,43.5l-12,34.9c8.1,2.4,16.7,2.1,24.6-0.6c-0.1-0.2-0.2-0.4-0.3-0.6L40.7,43.5z M67,38c0-4.9-1.8-8.4-3.3-11
			c-2-3.3-3.9-6.1-3.9-9.4c0-3.7,2.8-7.1,6.7-7.1c0.2,0,0.3,0,0.5,0C59.9,4,50.4,0,40,0C26,0,13.7,7.2,6.6,18
			c2.5,0.1,6,0.1,13.2-0.5c2.2-0.1,2.4,3,0.3,3.3c0,0-2.2,0.3-4.6,0.4l14.6,43.3l8.8-26.3l-6.2-17.1c-2.2-0.1-4.2-0.4-4.2-0.4
			c-2.2-0.1-1.9-3.4,0.3-3.3c8.3,0.6,12.5,0.7,21.2,0c2.2-0.1,2.4,3,0.3,3.3c0,0-2.2,0.3-4.6,0.4l14.5,43C65.7,45.2,67,42,67,38z
			 M0,40c0,15.8,9.2,29.5,22.5,36L3.5,23.7C1.2,28.7,0,34.2,0,40z"/>
	</g>
</g>
</svg>
